<svg xmlns="http://www.w3.org/2000/svg" xmlns:xlink="http://www.w3.org/1999/xlink" width="500" zoomAndPan="magnify" viewBox="0 0 375 374.999991" height="500" preserveAspectRatio="xMidYMid meet" version="1.0"><defs><g/><clipPath id="id1"><path d="M 127.5 89.039062 L 247.5 89.039062 L 247.5 209.039062 L 127.5 209.039062 Z M 127.5 89.039062 " clip-rule="nonzero"/></clipPath><clipPath id="id2"><path d="M 164.390625 107.503906 L 210.890625 107.503906 L 210.890625 190.753906 L 164.390625 190.753906 Z M 164.390625 107.503906 " clip-rule="nonzero"/></clipPath></defs><rect x="-37.5" width="450" fill="#ffffff" y="-37.499999" height="449.999989" fill-opacity="1"/><rect x="-37.5" width="450" fill="#4f7344" y="-37.499999" height="449.999989" fill-opacity="1"/><rect x="-37.5" width="450" fill="#ffffff" y="-37.499999" height="449.999989" fill-opacity="1"/><rect x="-37.5" width="450" fill="#4f7344" y="-37.499999" height="449.999989" fill-opacity="1"/><g clip-path="url(#id1)"><path fill="#f9ffed" d="M 152.335938 89.039062 L 222.664062 89.039062 C 223.476562 89.039062 224.289062 89.078125 225.097656 89.160156 C 225.910156 89.238281 226.710938 89.359375 227.511719 89.515625 C 228.308594 89.675781 229.097656 89.875 229.875 90.109375 C 230.652344 90.34375 231.417969 90.621094 232.167969 90.929688 C 232.921875 91.242188 233.65625 91.589844 234.371094 91.972656 C 235.089844 92.355469 235.785156 92.773438 236.460938 93.226562 C 237.140625 93.675781 237.792969 94.160156 238.421875 94.675781 C 239.050781 95.191406 239.652344 95.738281 240.226562 96.3125 C 240.800781 96.890625 241.347656 97.492188 241.863281 98.121094 C 242.378906 98.75 242.863281 99.402344 243.316406 100.078125 C 243.765625 100.753906 244.183594 101.449219 244.566406 102.167969 C 244.949219 102.886719 245.296875 103.621094 245.609375 104.371094 C 245.921875 105.121094 246.195312 105.886719 246.429688 106.664062 C 246.667969 107.445312 246.863281 108.230469 247.023438 109.03125 C 247.179688 109.828125 247.300781 110.632812 247.378906 111.441406 C 247.460938 112.25 247.5 113.0625 247.5 113.875 L 247.5 184.203125 C 247.5 185.019531 247.460938 185.828125 247.378906 186.640625 C 247.300781 187.449219 247.179688 188.253906 247.023438 189.050781 C 246.863281 189.847656 246.667969 190.636719 246.429688 191.414062 C 246.195312 192.191406 245.921875 192.957031 245.609375 193.707031 C 245.296875 194.460938 244.949219 195.195312 244.566406 195.914062 C 244.183594 196.628906 243.765625 197.328125 243.316406 198.003906 C 242.863281 198.679688 242.378906 199.332031 241.863281 199.960938 C 241.347656 200.589844 240.800781 201.191406 240.226562 201.765625 C 239.652344 202.339844 239.050781 202.886719 238.421875 203.402344 C 237.792969 203.917969 237.140625 204.402344 236.460938 204.855469 C 235.785156 205.304688 235.089844 205.722656 234.371094 206.109375 C 233.65625 206.492188 232.921875 206.839844 232.167969 207.148438 C 231.417969 207.460938 230.652344 207.734375 229.875 207.96875 C 229.097656 208.207031 228.308594 208.402344 227.511719 208.5625 C 226.710938 208.722656 225.910156 208.839844 225.097656 208.921875 C 224.289062 209 223.476562 209.039062 222.664062 209.039062 L 152.335938 209.039062 C 151.523438 209.039062 150.710938 209 149.902344 208.921875 C 149.089844 208.839844 148.289062 208.722656 147.488281 208.5625 C 146.691406 208.402344 145.902344 208.207031 145.125 207.96875 C 144.347656 207.734375 143.582031 207.460938 142.832031 207.148438 C 142.078125 206.839844 141.34375 206.492188 140.628906 206.109375 C 139.910156 205.722656 139.214844 205.304688 138.539062 204.855469 C 137.859375 204.402344 137.207031 203.917969 136.578125 203.402344 C 135.949219 202.886719 135.347656 202.339844 134.773438 201.765625 C 134.199219 201.191406 133.652344 200.589844 133.136719 199.960938 C 132.621094 199.332031 132.136719 198.679688 131.683594 198.003906 C 131.234375 197.328125 130.816406 196.628906 130.433594 195.914062 C 130.050781 195.195312 129.703125 194.460938 129.390625 193.707031 C 129.078125 192.957031 128.804688 192.191406 128.570312 191.414062 C 128.332031 190.636719 128.136719 189.847656 127.976562 189.050781 C 127.820312 188.253906 127.699219 187.449219 127.621094 186.640625 C 127.539062 185.828125 127.5 185.019531 127.5 184.203125 L 127.5 113.875 C 127.5 113.0625 127.539062 112.25 127.621094 111.441406 C 127.699219 110.632812 127.820312 109.828125 127.976562 109.03125 C 128.136719 108.230469 128.332031 107.445312 128.570312 106.664062 C 128.804688 105.886719 129.078125 105.121094 129.390625 104.371094 C 129.703125 103.621094 130.050781 102.886719 130.433594 102.167969 C 130.816406 101.449219 131.234375 100.753906 131.683594 100.078125 C 132.136719 99.402344 132.621094 98.75 133.136719 98.121094 C 133.652344 97.492188 134.199219 96.890625 134.773438 96.3125 C 135.347656 95.738281 135.949219 95.191406 136.578125 94.675781 C 137.207031 94.160156 137.859375 93.675781 138.539062 93.226562 C 139.214844 92.773438 139.910156 92.355469 140.628906 91.972656 C 141.34375 91.589844 142.078125 91.242188 142.832031 90.929688 C 143.582031 90.621094 144.347656 90.34375 145.125 90.109375 C 145.902344 89.875 146.691406 89.675781 147.488281 89.515625 C 148.289062 89.359375 149.089844 89.238281 149.902344 89.160156 C 150.710938 89.078125 151.523438 89.039062 152.335938 89.039062 Z M 152.335938 89.039062 " fill-opacity="1" fill-rule="nonzero"/></g><g clip-path="url(#id2)"><path fill="#292f33" d="M 210.417969 161.175781 C 210.417969 143.433594 177.578125 144.59375 177.578125 133.882812 C 177.578125 128.695312 182.558594 126.164062 188.335938 126.164062 C 198.050781 126.164062 199.78125 132.382812 204.179688 132.382812 C 207.296875 132.382812 208.796875 130.425781 208.796875 128.238281 C 208.796875 123.148438 201.046875 119.292969 193.617188 117.960938 L 193.617188 113.046875 C 193.617188 109.984375 191.128906 107.5 188.050781 107.5 C 184.96875 107.5 182.476562 109.984375 182.476562 113.046875 L 182.476562 118.132812 C 174.375 119.96875 167.410156 125.566406 167.410156 134.6875 C 167.410156 151.730469 200.246094 151.039062 200.246094 163.011719 C 200.246094 167.15625 195.738281 171.300781 188.335938 171.300781 C 177.234375 171.300781 173.535156 163.820312 169.027344 163.820312 C 166.832031 163.820312 164.867188 165.660156 164.867188 168.433594 C 164.867188 172.84375 172.285156 178.148438 182.484375 179.628906 L 182.476562 179.664062 L 182.476562 185.207031 C 182.476562 188.273438 184.972656 190.761719 188.050781 190.761719 C 191.128906 190.761719 193.621094 188.273438 193.621094 185.207031 L 193.621094 179.664062 C 193.621094 179.601562 193.589844 179.550781 193.585938 179.492188 C 202.765625 177.785156 210.417969 171.824219 210.417969 161.175781 Z M 210.417969 161.175781 " fill-opacity="1" fill-rule="nonzero"/></g><g fill="#f9ffed" fill-opacity="1"><g transform="translate(93.937498, 264.934963)"><g><path d="M 2.800781 0 L 21.699219 0 C 29.945312 0 34.996094 -3.449219 34.996094 -9.550781 C 34.996094 -13.949219 32.195312 -17.046875 28.398438 -18.046875 L 28.398438 -18.5 C 31.597656 -19.5 33.996094 -22.199219 33.996094 -26.046875 C 33.996094 -31.898438 29.148438 -35.695312 20.898438 -35.695312 L 2.800781 -35.695312 Z M 12.449219 -21.148438 L 12.449219 -28.847656 L 19.046875 -28.847656 C 21.949219 -28.847656 23.996094 -27.296875 23.996094 -24.996094 C 23.996094 -22.699219 21.949219 -21.148438 19.046875 -21.148438 Z M 12.449219 -6.847656 L 12.449219 -15.347656 L 19.597656 -15.347656 C 22.699219 -15.347656 24.996094 -13.546875 24.996094 -11.097656 C 24.996094 -8.648438 22.699219 -6.847656 19.597656 -6.847656 Z M 12.449219 -6.847656 "/></g></g></g><g fill="#f9ffed" fill-opacity="1"><g transform="translate(130.331859, 264.934963)"><g><path d="M 15.546875 0.648438 C 24.296875 0.648438 29.945312 -4.449219 29.945312 -12.847656 C 29.945312 -21.246094 24.246094 -26.347656 15.546875 -26.347656 C 6.75 -26.347656 1.101562 -21.246094 1.101562 -12.847656 C 1.101562 -4.5 6.800781 0.648438 15.546875 0.648438 Z M 15.546875 -6.5 C 12.097656 -6.5 9.699219 -9.097656 9.699219 -12.847656 C 9.699219 -16.597656 12.097656 -19.199219 15.546875 -19.199219 C 18.949219 -19.199219 21.347656 -16.597656 21.347656 -12.847656 C 21.347656 -9.097656 18.949219 -6.5 15.546875 -6.5 Z M 15.546875 -6.5 "/></g></g></g><g fill="#f9ffed" fill-opacity="1"><g transform="translate(161.377057, 264.934963)"><g><path d="M 19.449219 0.648438 C 26.347656 0.648438 30.898438 -4.597656 30.898438 -12.847656 C 30.898438 -21.046875 26.296875 -26.347656 19.449219 -26.347656 C 15.796875 -26.347656 13.148438 -24.746094 11.398438 -21.996094 L 10.949219 -21.996094 L 10.949219 -37.195312 L 2.398438 -37.195312 L 2.398438 0 L 10.949219 0 L 10.949219 -3.699219 L 11.398438 -3.699219 C 13.148438 -0.949219 15.75 0.648438 19.449219 0.648438 Z M 16.449219 -6.5 C 13.046875 -6.5 10.597656 -9.199219 10.597656 -12.847656 C 10.597656 -16.5 13.046875 -19.199219 16.449219 -19.199219 C 19.847656 -19.199219 22.296875 -16.5 22.296875 -12.847656 C 22.296875 -9.199219 19.847656 -6.5 16.449219 -6.5 Z M 16.449219 -6.5 "/></g></g></g><g fill="#f9ffed" fill-opacity="1"><g transform="translate(193.422092, 264.934963)"><g/></g></g><g fill="#f9ffed" fill-opacity="1"><g transform="translate(205.570212, 264.934963)"><g><path d="M 2.800781 0 L 12.5 0 L 12.5 -35.695312 L 2.800781 -35.695312 Z M 2.800781 0 "/></g></g></g><g fill="#f9ffed" fill-opacity="1"><g transform="translate(220.817849, 264.934963)"><g><path d="M 2.398438 0 L 11 0 L 11 -14.296875 C 11 -17.148438 12.898438 -19.199219 15.398438 -19.199219 C 17.949219 -19.199219 19.546875 -17.097656 19.546875 -14.199219 L 19.546875 0 L 28.148438 0 L 28.148438 -15.898438 C 28.148438 -21.949219 24.449219 -26.347656 19.097656 -26.347656 C 15.75 -26.347656 13.398438 -24.746094 11.398438 -21.496094 L 11 -21.496094 L 11 -25.699219 L 2.398438 -25.699219 Z M 2.398438 0 "/></g></g></g><g fill="#f9ffed" fill-opacity="1"><g transform="translate(251.063163, 264.934963)"><g><path d="M 15.5 0.648438 C 22.699219 0.648438 27.945312 -3.050781 28.847656 -9.347656 L 20.949219 -10.347656 C 20.398438 -7.898438 18.148438 -6.199219 15.597656 -6.199219 C 12.199219 -6.199219 9.75 -9 9.75 -12.847656 C 9.75 -16.699219 12.199219 -19.546875 15.597656 -19.546875 C 18.097656 -19.546875 20.398438 -17.75 20.949219 -15.25 L 28.847656 -16.25 C 27.996094 -22.597656 22.699219 -26.347656 15.5 -26.347656 C 6.898438 -26.347656 1.199219 -21.148438 1.148438 -12.847656 C 1.199219 -4.648438 7.050781 0.648438 15.5 0.648438 Z M 15.5 0.648438 "/></g></g></g><g fill="#f9ffed" fill-opacity="1"><g transform="translate(96.164061, 289.809972)"><g><path d="M 1.152344 0 L 3.167969 0 L 3.167969 -3.855469 L 5.839844 -3.855469 C 8.636719 -3.855469 10.238281 -5.375 10.238281 -7.597656 C 10.253906 -9.804688 8.65625 -11.328125 5.855469 -11.328125 L 1.152344 -11.328125 Z M 3.167969 -5.359375 L 3.167969 -9.824219 L 5.648438 -9.824219 C 7.328125 -9.824219 8.222656 -8.894531 8.222656 -7.597656 C 8.222656 -6.269531 7.328125 -5.359375 5.648438 -5.359375 Z M 3.167969 -5.359375 "/></g></g></g><g fill="#f9ffed" fill-opacity="1"><g transform="translate(106.961469, 289.809972)"><g><path d="M 1.054688 0 L 2.863281 0 L 2.863281 -4.269531 C 2.863281 -5.742188 3.617188 -6.71875 4.765625 -6.71875 C 5.167969 -6.71875 5.664062 -6.605469 6.109375 -6.382812 L 6.109375 -8.0625 C 5.792969 -8.207031 5.40625 -8.285156 5.039062 -8.285156 C 4.0625 -8.285156 3.375 -7.726562 2.992188 -6.800781 L 2.863281 -6.800781 L 2.863281 -8.125 L 1.054688 -8.125 Z M 1.054688 0 "/></g></g></g><g fill="#f9ffed" fill-opacity="1"><g transform="translate(113.439912, 289.809972)"><g><path d="M 4.976562 0.257812 C 7.613281 0.257812 9.40625 -1.457031 9.40625 -4.0625 C 9.40625 -6.671875 7.613281 -8.382812 4.976562 -8.382812 C 2.335938 -8.382812 0.558594 -6.6875 0.558594 -4.0625 C 0.558594 -1.457031 2.351562 0.257812 4.976562 0.257812 Z M 4.976562 -1.296875 C 3.457031 -1.296875 2.367188 -2.449219 2.367188 -4.0625 C 2.367188 -5.679688 3.457031 -6.832031 4.976562 -6.832031 C 6.511719 -6.832031 7.597656 -5.679688 7.597656 -4.0625 C 7.597656 -2.449219 6.511719 -1.296875 4.976562 -1.296875 Z M 4.976562 -1.296875 "/></g></g></g><g fill="#f9ffed" fill-opacity="1"><g transform="translate(123.389519, 289.809972)"><g><path d="M 1.710938 0 L 3.519531 0 L 3.519531 -6.78125 L 5.488281 -6.78125 L 5.488281 -8.125 L 3.519531 -8.125 L 3.519531 -9.40625 C 3.519531 -10.160156 3.984375 -10.511719 4.640625 -10.511719 C 4.910156 -10.511719 5.328125 -10.460938 5.582031 -10.382812 L 5.582031 -11.855469 C 5.152344 -11.980469 4.574219 -12.0625 4.078125 -12.0625 C 2.671875 -12.0625 1.710938 -11.085938 1.710938 -9.40625 L 1.710938 -8.125 L 0.464844 -8.125 L 0.464844 -6.78125 L 1.710938 -6.78125 Z M 1.710938 0 "/></g></g></g><g fill="#f9ffed" fill-opacity="1"><g transform="translate(129.340092, 289.809972)"><g><path d="M 1.710938 0 L 3.519531 0 L 3.519531 -6.78125 L 5.488281 -6.78125 L 5.488281 -8.125 L 3.519531 -8.125 L 3.519531 -9.40625 C 3.519531 -10.160156 3.984375 -10.511719 4.640625 -10.511719 C 4.910156 -10.511719 5.328125 -10.460938 5.582031 -10.382812 L 5.582031 -11.855469 C 5.152344 -11.980469 4.574219 -12.0625 4.078125 -12.0625 C 2.671875 -12.0625 1.710938 -11.085938 1.710938 -9.40625 L 1.710938 -8.125 L 0.464844 -8.125 L 0.464844 -6.78125 L 1.710938 -6.78125 Z M 1.710938 0 "/></g></g></g><g fill="#f9ffed" fill-opacity="1"><g transform="translate(135.290665, 289.809972)"><g><path d="M 5.054688 0.257812 C 7.007812 0.257812 8.703125 -0.800781 9.152344 -2.367188 L 7.550781 -2.625 C 7.214844 -1.710938 6.238281 -1.054688 5.136719 -1.054688 C 3.632812 -1.054688 2.558594 -2.0625 2.429688 -3.566406 L 9.40625 -3.566406 L 9.421875 -4.0625 C 9.421875 -6.640625 7.664062 -8.382812 5.070312 -8.382812 C 2.429688 -8.382812 0.574219 -6.65625 0.574219 -4.078125 C 0.574219 -1.488281 2.414062 0.257812 5.054688 0.257812 Z M 2.414062 -4.625 C 2.558594 -6.078125 3.582031 -7.085938 5.039062 -7.085938 C 6.445312 -7.085938 7.488281 -6.03125 7.582031 -4.625 Z M 2.414062 -4.625 "/></g></g></g><g fill="#f9ffed" fill-opacity="1"><g transform="translate(145.272269, 289.809972)"><g><path d="M 4.304688 0.289062 C 6.496094 0.289062 7.984375 -0.71875 7.984375 -2.351562 C 7.984375 -4.289062 6.191406 -4.574219 4.671875 -4.785156 C 3.472656 -4.941406 2.367188 -5.054688 2.367188 -6.078125 C 2.367188 -6.765625 3.085938 -7.246094 4.113281 -7.246094 C 5.277344 -7.246094 6.0625 -6.640625 6.0625 -5.710938 L 7.695312 -5.710938 C 7.695312 -7.359375 6.207031 -8.414062 4.113281 -8.414062 C 2.0625 -8.414062 0.6875 -7.421875 0.6875 -5.902344 C 0.6875 -3.871094 2.542969 -3.664062 4 -3.488281 C 5.136719 -3.34375 6.175781 -3.246094 6.175781 -2.144531 C 6.175781 -1.375 5.390625 -0.878906 4.320312 -0.878906 C 3.023438 -0.878906 2.144531 -1.582031 2.128906 -2.589844 L 0.558594 -2.589844 C 0.558594 -0.863281 2.046875 0.289062 4.304688 0.289062 Z M 4.304688 0.289062 "/></g></g></g><g fill="#f9ffed" fill-opacity="1"><g transform="translate(153.830218, 289.809972)"><g><path d="M 2.015625 -9.4375 C 2.671875 -9.4375 3.152344 -9.886719 3.152344 -10.527344 C 3.152344 -11.167969 2.671875 -11.613281 2.015625 -11.613281 C 1.375 -11.613281 0.894531 -11.167969 0.894531 -10.527344 C 0.894531 -9.886719 1.375 -9.4375 2.015625 -9.4375 Z M 1.105469 0 L 2.925781 0 L 2.925781 -8.125 L 1.105469 -8.125 Z M 1.105469 0 "/></g></g></g><g fill="#f9ffed" fill-opacity="1"><g transform="translate(157.86125, 289.809972)"><g><path d="M 4.976562 0.257812 C 7.613281 0.257812 9.40625 -1.457031 9.40625 -4.0625 C 9.40625 -6.671875 7.613281 -8.382812 4.976562 -8.382812 C 2.335938 -8.382812 0.558594 -6.6875 0.558594 -4.0625 C 0.558594 -1.457031 2.351562 0.257812 4.976562 0.257812 Z M 4.976562 -1.296875 C 3.457031 -1.296875 2.367188 -2.449219 2.367188 -4.0625 C 2.367188 -5.679688 3.457031 -6.832031 4.976562 -6.832031 C 6.511719 -6.832031 7.597656 -5.679688 7.597656 -4.0625 C 7.597656 -2.449219 6.511719 -1.296875 4.976562 -1.296875 Z M 4.976562 -1.296875 "/></g></g></g><g fill="#f9ffed" fill-opacity="1"><g transform="translate(167.810858, 289.809972)"><g><path d="M 1.054688 0 L 2.863281 0 L 2.863281 -4.671875 C 2.863281 -5.933594 3.792969 -6.832031 4.976562 -6.832031 C 6.175781 -6.832031 6.910156 -5.902344 6.910156 -4.589844 L 6.910156 0 L 8.734375 0 L 8.734375 -4.910156 C 8.734375 -6.910156 7.503906 -8.382812 5.648438 -8.382812 C 4.480469 -8.382812 3.566406 -7.789062 2.992188 -6.734375 L 2.863281 -6.734375 L 2.863281 -8.125 L 1.054688 -8.125 Z M 1.054688 0 "/></g></g></g><g fill="#f9ffed" fill-opacity="1"><g transform="translate(177.472531, 289.809972)"><g><path d="M 3.199219 0.257812 C 4.464844 0.257812 5.597656 -0.257812 6.128906 -1.265625 L 6.238281 -1.265625 L 6.238281 0 L 8.0625 0 L 8.0625 -5.3125 C 8.0625 -7.101562 6.605469 -8.320312 4.511719 -8.320312 C 2.367188 -8.320312 0.910156 -7.136719 0.910156 -5.421875 L 2.671875 -5.421875 C 2.671875 -6.414062 3.421875 -7.101562 4.496094 -7.101562 C 5.535156 -7.101562 6.238281 -6.382812 6.238281 -5.375 L 6.238281 -4.941406 L 4.222656 -4.625 C 1.664062 -4.222656 0.527344 -3.375 0.527344 -1.917969 C 0.527344 -0.542969 1.601562 0.257812 3.199219 0.257812 Z M 3.839844 -0.929688 C 2.863281 -0.929688 2.289062 -1.359375 2.289062 -2.0625 C 2.289062 -2.816406 2.863281 -3.3125 4.335938 -3.566406 L 6.238281 -3.886719 L 6.238281 -3.183594 C 6.238281 -1.886719 5.277344 -0.929688 3.839844 -0.929688 Z M 3.839844 -0.929688 "/></g></g></g><g fill="#f9ffed" fill-opacity="1"><g transform="translate(186.462368, 289.809972)"><g><path d="M 1.039062 0 L 2.863281 0 L 2.863281 -11.804688 L 1.039062 -11.804688 Z M 1.039062 0 "/></g></g></g><g fill="#f9ffed" fill-opacity="1"><g transform="translate(190.365433, 289.809972)"><g/></g></g><g fill="#f9ffed" fill-opacity="1"><g transform="translate(194.300484, 289.809972)"><g><path d="M 5.648438 0.304688 C 8.574219 0.304688 10.496094 -1.054688 10.496094 -3.183594 C 10.496094 -5.742188 8.03125 -6.128906 6.015625 -6.429688 C 4.414062 -6.671875 2.960938 -6.910156 2.960938 -8.253906 C 2.960938 -9.359375 3.933594 -10.140625 5.550781 -10.140625 C 7.230469 -10.140625 8.320312 -9.261719 8.320312 -7.808594 L 10.175781 -7.808594 C 10.160156 -10.109375 8.320312 -11.644531 5.472656 -11.644531 C 2.703125 -11.644531 0.929688 -10.238281 0.929688 -8.125 C 0.929688 -5.519531 3.472656 -5.199219 5.472656 -4.910156 C 7.039062 -4.671875 8.480469 -4.449219 8.480469 -3.070312 C 8.480469 -1.9375 7.390625 -1.199219 5.726562 -1.199219 C 3.855469 -1.199219 2.703125 -2.144531 2.703125 -3.679688 L 0.800781 -3.664062 C 0.800781 -1.28125 2.71875 0.304688 5.648438 0.304688 Z M 5.648438 0.304688 "/></g></g></g><g fill="#f9ffed" fill-opacity="1"><g transform="translate(205.593776, 289.809972)"><g><path d="M 4.960938 0.257812 C 7.054688 0.257812 8.6875 -0.910156 9.007812 -2.71875 L 7.328125 -2.945312 C 7.070312 -1.953125 6.09375 -1.230469 4.976562 -1.230469 C 3.472656 -1.230469 2.382812 -2.414062 2.382812 -4.0625 C 2.382812 -5.710938 3.472656 -6.894531 4.976562 -6.894531 C 6.078125 -6.894531 7.070312 -6.160156 7.328125 -5.121094 L 9.007812 -5.34375 C 8.703125 -7.199219 7.054688 -8.382812 4.960938 -8.382812 C 2.367188 -8.382812 0.574219 -6.65625 0.574219 -4.0625 C 0.558594 -1.503906 2.398438 0.257812 4.960938 0.257812 Z M 4.960938 0.257812 "/></g></g></g><g fill="#f9ffed" fill-opacity="1"><g transform="translate(215.175478, 289.809972)"><g><path d="M 3.199219 0.257812 C 4.464844 0.257812 5.597656 -0.257812 6.128906 -1.265625 L 6.238281 -1.265625 L 6.238281 0 L 8.0625 0 L 8.0625 -5.3125 C 8.0625 -7.101562 6.605469 -8.320312 4.511719 -8.320312 C 2.367188 -8.320312 0.910156 -7.136719 0.910156 -5.421875 L 2.671875 -5.421875 C 2.671875 -6.414062 3.421875 -7.101562 4.496094 -7.101562 C 5.535156 -7.101562 6.238281 -6.382812 6.238281 -5.375 L 6.238281 -4.941406 L 4.222656 -4.625 C 1.664062 -4.222656 0.527344 -3.375 0.527344 -1.917969 C 0.527344 -0.542969 1.601562 0.257812 3.199219 0.257812 Z M 3.839844 -0.929688 C 2.863281 -0.929688 2.289062 -1.359375 2.289062 -2.0625 C 2.289062 -2.816406 2.863281 -3.3125 4.335938 -3.566406 L 6.238281 -3.886719 L 6.238281 -3.183594 C 6.238281 -1.886719 5.277344 -0.929688 3.839844 -0.929688 Z M 3.839844 -0.929688 "/></g></g></g><g fill="#f9ffed" fill-opacity="1"><g transform="translate(224.165315, 289.809972)"><g><path d="M 1.054688 0 L 2.863281 0 L 2.863281 -4.75 C 2.863281 -6.015625 3.617188 -6.832031 4.75 -6.832031 C 5.824219 -6.832031 6.542969 -6.015625 6.542969 -4.75 L 6.542969 0 L 8.367188 0 L 8.367188 -4.75 C 8.367188 -6 9.117188 -6.832031 10.269531 -6.832031 C 11.390625 -6.816406 12.09375 -5.96875 12.09375 -4.75 L 12.09375 0 L 13.917969 0 L 13.917969 -5.121094 C 13.917969 -7.070312 12.703125 -8.382812 10.925781 -8.382812 C 9.566406 -8.382812 8.621094 -7.679688 8.238281 -6.558594 L 8.125 -6.558594 C 7.773438 -7.664062 6.765625 -8.382812 5.503906 -8.382812 C 4.351562 -8.382812 3.441406 -7.757812 2.992188 -6.800781 L 2.863281 -6.800781 L 2.863281 -8.125 L 1.054688 -8.125 Z M 1.054688 0 "/></g></g></g><g fill="#f9ffed" fill-opacity="1"><g transform="translate(238.993756, 289.809972)"><g><path d="M 1.054688 0 L 2.863281 0 L 2.863281 -4.75 C 2.863281 -6.015625 3.617188 -6.832031 4.75 -6.832031 C 5.824219 -6.832031 6.542969 -6.015625 6.542969 -4.75 L 6.542969 0 L 8.367188 0 L 8.367188 -4.75 C 8.367188 -6 9.117188 -6.832031 10.269531 -6.832031 C 11.390625 -6.816406 12.09375 -5.96875 12.09375 -4.75 L 12.09375 0 L 13.917969 0 L 13.917969 -5.121094 C 13.917969 -7.070312 12.703125 -8.382812 10.925781 -8.382812 C 9.566406 -8.382812 8.621094 -7.679688 8.238281 -6.558594 L 8.125 -6.558594 C 7.773438 -7.664062 6.765625 -8.382812 5.503906 -8.382812 C 4.351562 -8.382812 3.441406 -7.757812 2.992188 -6.800781 L 2.863281 -6.800781 L 2.863281 -8.125 L 1.054688 -8.125 Z M 1.054688 0 "/></g></g></g><g fill="#f9ffed" fill-opacity="1"><g transform="translate(253.822196, 289.809972)"><g><path d="M 5.054688 0.257812 C 7.007812 0.257812 8.703125 -0.800781 9.152344 -2.367188 L 7.550781 -2.625 C 7.214844 -1.710938 6.238281 -1.054688 5.136719 -1.054688 C 3.632812 -1.054688 2.558594 -2.0625 2.429688 -3.566406 L 9.40625 -3.566406 L 9.421875 -4.0625 C 9.421875 -6.640625 7.664062 -8.382812 5.070312 -8.382812 C 2.429688 -8.382812 0.574219 -6.65625 0.574219 -4.078125 C 0.574219 -1.488281 2.414062 0.257812 5.054688 0.257812 Z M 2.414062 -4.625 C 2.558594 -6.078125 3.582031 -7.085938 5.039062 -7.085938 C 6.445312 -7.085938 7.488281 -6.03125 7.582031 -4.625 Z M 2.414062 -4.625 "/></g></g></g><g fill="#f9ffed" fill-opacity="1"><g transform="translate(263.803801, 289.809972)"><g><path d="M 1.054688 0 L 2.863281 0 L 2.863281 -4.269531 C 2.863281 -5.742188 3.617188 -6.71875 4.765625 -6.71875 C 5.167969 -6.71875 5.664062 -6.605469 6.109375 -6.382812 L 6.109375 -8.0625 C 5.792969 -8.207031 5.40625 -8.285156 5.039062 -8.285156 C 4.0625 -8.285156 3.375 -7.726562 2.992188 -6.800781 L 2.863281 -6.800781 L 2.863281 -8.125 L 1.054688 -8.125 Z M 1.054688 0 "/></g></g></g><g fill="#f9ffed" fill-opacity="1"><g transform="translate(270.282244, 289.809972)"><g><path d="M 4.304688 0.289062 C 6.496094 0.289062 7.984375 -0.71875 7.984375 -2.351562 C 7.984375 -4.289062 6.191406 -4.574219 4.671875 -4.785156 C 3.472656 -4.941406 2.367188 -5.054688 2.367188 -6.078125 C 2.367188 -6.765625 3.085938 -7.246094 4.113281 -7.246094 C 5.277344 -7.246094 6.0625 -6.640625 6.0625 -5.710938 L 7.695312 -5.710938 C 7.695312 -7.359375 6.207031 -8.414062 4.113281 -8.414062 C 2.0625 -8.414062 0.6875 -7.421875 0.6875 -5.902344 C 0.6875 -3.871094 2.542969 -3.664062 4 -3.488281 C 5.136719 -3.34375 6.175781 -3.246094 6.175781 -2.144531 C 6.175781 -1.375 5.390625 -0.878906 4.320312 -0.878906 C 3.023438 -0.878906 2.144531 -1.582031 2.128906 -2.589844 L 0.558594 -2.589844 C 0.558594 -0.863281 2.046875 0.289062 4.304688 0.289062 Z M 4.304688 0.289062 "/></g></g></g></svg>